<?xml version="1.0" encoding="utf-8"?>
<!-- Generator: Adobe Illustrator 27.0.0, SVG Export Plug-In . SVG Version: 6.00 Build 0)  -->
<svg version="1.1" id="图层_1" xmlns="http://www.w3.org/2000/svg" xmlns:xlink="http://www.w3.org/1999/xlink" x="0px" y="0px"
	 viewBox="0 0 1836 938" style="enable-background:new 0 0 1836 938;" xml:space="preserve">
<style type="text/css">
	.st0{fill:#5A5A5A;}
	.st1{fill:#FFFFFF;}
	.st2{fill:#FDDD28;}
	.st3{fill:#353434;}
	.st4{opacity:0.2;}
	.st5{fill:#443D3D;}
	.st6{fill:#4A4A4A;}
	.st7{fill:#575757;}
	.st8{fill:none;}
</style>
<g>
	<g>
		<polygon class="st0" points="1830,4.1 1830,686.3 1496.9,933.2 5.2,926.5 4,254 400.2,3 		"/>
		<path class="st1" d="M1497,933.7l-0.2,0L4.7,927l0-0.5L3.5,253.7l0.2-0.1L400.1,2.5h0.1l1430.3,1.1v682.9l-0.2,0.1L1497,933.7z
			 M5.7,926l1490.9,6.7L1829.5,686V4.6L400.3,3.5L4.5,254.3L5.7,926z"/>
	</g>
	<g>
		<g>
			<path class="st1" d="M29.7,641c-1.1,0.6-2.1,1-2.9,1c-0.8,0-1.5-0.2-2-0.8c-0.5-0.6-0.7-1.5-0.7-2.8c0-1.1,0.2-2.1,0.5-3
				s0.8-1.8,1.4-2.6c0.6-0.8,1.3-1.5,2-2.2c0.8-0.7,1.6-1.3,2.4-1.9c1-0.7,1.8-1.3,2.4-1.7c0.6-0.5,1-0.9,1.3-1.2
				c0.3-0.4,0.4-0.8,0.4-1.2v-0.1c0-0.8-0.2-1.3-0.7-1.5c-0.4-0.2-1.1-0.1-1.9,0.4c-0.8,0.5-1.5,1.1-2,1.8c-0.5,0.7-0.8,1.4-1,2.2
				l-4.4,2.1c0.2-1.3,0.7-2.6,1.3-3.8c0.6-1.3,1.5-2.4,2.5-3.5c1-1.1,2.2-2,3.6-2.8c0.9-0.5,1.8-0.9,2.7-1.2
				c0.9-0.2,1.6-0.3,2.3-0.1c0.7,0.1,1.2,0.5,1.6,1.1c0.4,0.6,0.6,1.5,0.6,2.7l0,13.2l-4.5,2.6l0-2.7l-0.1,0.1
				c-0.3,0.8-0.6,1.5-1.1,2.3c-0.5,0.7-1,1.4-1.6,2C31.3,639.9,30.6,640.5,29.7,641z M31.1,636.4c0.7-0.4,1.3-0.9,1.8-1.5
				c0.5-0.6,0.9-1.3,1.3-2c0.3-0.7,0.5-1.4,0.5-2.1l0-2.1c-0.1,0.2-0.4,0.4-0.6,0.7c-0.3,0.2-0.5,0.5-0.9,0.7
				c-0.3,0.3-0.6,0.5-1,0.7c-0.3,0.2-0.6,0.4-0.9,0.6c-0.6,0.4-1,0.8-1.4,1.3s-0.7,0.9-1,1.4c-0.2,0.5-0.3,1-0.3,1.5
				c0,0.7,0.2,1.2,0.7,1.3C29.8,637,30.4,636.8,31.1,636.4z M62.6,603c-0.1-1-0.5-1.6-1.1-1.7c-0.7-0.2-1.6,0.1-2.7,0.7
				c-0.8,0.5-1.4,1-2,1.5c-0.5,0.6-1,1.1-1.2,1.8c-0.3,0.6-0.4,1.2-0.4,1.8c0,0.5,0.1,0.8,0.3,1.1c0.2,0.2,0.5,0.4,0.8,0.5
				c0.3,0.1,0.7,0.1,1.2,0c0.4-0.1,0.9-0.2,1.4-0.3l2-0.6c1-0.3,1.9-0.5,2.7-0.6c0.8-0.1,1.5,0.1,2.1,0.3c0.6,0.3,1.1,0.7,1.4,1.4
				c0.3,0.6,0.5,1.5,0.5,2.6c0,1.6-0.4,3.2-1.1,4.8c-0.7,1.6-1.7,3.1-3,4.5c-1.3,1.4-2.9,2.6-4.7,3.7c-1.8,1.1-3.4,1.7-4.8,1.8
				c-1.4,0.1-2.4-0.2-3.2-1c-0.8-0.8-1.1-2.2-1.2-4.1l4.6-2.7c0.1,0.8,0.3,1.5,0.7,1.8c0.4,0.4,0.9,0.5,1.6,0.4
				c0.7-0.1,1.4-0.4,2.2-0.9c0.8-0.5,1.5-1,2.1-1.6c0.6-0.6,1.1-1.3,1.4-1.9c0.3-0.7,0.5-1.3,0.5-2c0-0.6-0.2-1-0.5-1.2
				c-0.3-0.2-0.7-0.3-1.3-0.3c-0.6,0-1.3,0.2-2.1,0.4l-2.5,0.7c-1.9,0.6-3.4,0.6-4.5,0.1s-1.7-1.7-1.7-3.7c0-1.6,0.4-3.2,1.1-4.8
				c0.7-1.6,1.8-3.1,3.1-4.5c1.3-1.4,2.8-2.6,4.4-3.6c1.7-1,3.2-1.5,4.4-1.5c1.3-0.1,2.2,0.3,2.9,1.1c0.7,0.8,1.1,1.9,1.1,3.5
				L62.6,603z M78.3,612.9c-1.7,1-3.2,1.4-4.5,1.3c-1.2-0.1-2.2-0.8-2.9-1.9c-0.7-1.1-1-2.7-1-4.7c0-2,0.3-4,1-5.9
				c0.7-1.9,1.6-3.7,2.9-5.2c1.3-1.6,2.7-2.9,4.5-3.9c1.7-1,3.2-1.4,4.5-1.3c1.3,0.1,2.2,0.7,2.9,1.9c0.7,1.1,1,2.7,1,4.7
				c0,2-0.3,4-1,5.9c-0.7,1.9-1.6,3.7-2.9,5.2C81.5,610.6,80,611.9,78.3,612.9z M78.3,608.7c0.8-0.5,1.4-1.1,2-1.9
				c0.5-0.8,0.9-1.8,1.2-2.8c0.3-1.1,0.4-2.2,0.4-3.3c0-1.1-0.1-2.1-0.4-2.8c-0.3-0.7-0.7-1.2-1.2-1.4c-0.5-0.2-1.2-0.1-2,0.4
				c-0.8,0.5-1.5,1.1-2,1.9c-0.5,0.8-0.9,1.8-1.2,2.8c-0.3,1-0.4,2.1-0.4,3.3c0,1.1,0.1,2.1,0.4,2.8c0.3,0.7,0.7,1.2,1.2,1.4
				C76.9,609.3,77.5,609.1,78.3,608.7z M98.9,581l0,4.1l-10.5,6.1l0-4.1L98.9,581z M90.8,605.3l0-21.1c0-1.4,0.2-2.7,0.7-4
				c0.5-1.2,1.2-2.3,2-3.3c0.8-1,1.8-1.7,2.9-2.4c0.7-0.4,1.4-0.7,2-1c0.6-0.2,1.1-0.4,1.4-0.4l-0.8,4.6c-0.2,0-0.4,0.1-0.7,0.2
				c-0.3,0.1-0.5,0.2-0.8,0.4c-0.7,0.4-1.2,0.9-1.4,1.4c-0.3,0.5-0.4,1.1-0.4,1.8l0,21L90.8,605.3z M110.8,574.1l0,4.1l-10.2,5.9
				l0-4.1L110.8,574.1z M102.9,574l4.7-2.7l0,18.3c0,0.5,0.1,0.9,0.2,1.1c0.1,0.2,0.3,0.3,0.6,0.3c0.2,0,0.5-0.1,0.8-0.3
				c0.2-0.1,0.4-0.3,0.7-0.4c0.2-0.2,0.4-0.3,0.5-0.4l0.7,3.6c-0.2,0.2-0.6,0.5-1,0.9c-0.4,0.4-0.9,0.7-1.6,1.1
				c-1.1,0.7-2.1,1.1-3,1.2c-0.8,0.1-1.5-0.2-2-0.7c-0.5-0.6-0.7-1.5-0.7-2.8L102.9,574z M117.2,590l-4.6-17l4.8-2.8L120,582
				l0.2-0.1l2.7-14.8l4.7-2.7l2.8,11.5l0.1-0.1l2.6-14.6l4.8-2.8l-4.6,22.3l-5,2.9l-2.9-10.7l-0.2,0.1l-2.9,14L117.2,590z
				 M147.7,572.8c-1.7,1-3.3,1.5-4.5,1.4c-1.3-0.1-2.2-0.7-2.9-1.8c-0.7-1.1-1-2.7-1-4.8c0-2,0.3-4,1-5.9c0.7-1.9,1.6-3.7,2.9-5.2
				c1.2-1.6,2.7-2.8,4.4-3.8c1.1-0.6,2.2-1,3.1-1.2c1-0.2,1.8,0,2.5,0.4c0.7,0.4,1.3,1.1,1.7,2.1c0.4,1,0.6,2.3,0.6,4v1.5l-14.4,8.3
				l0-3.4l9.9-5.7c0-0.8-0.1-1.4-0.4-1.8c-0.3-0.4-0.7-0.7-1.2-0.7c-0.5-0.1-1.1,0.1-1.8,0.5c-0.7,0.4-1.3,1-1.9,1.7
				c-0.5,0.7-1,1.4-1.3,2.3c-0.3,0.8-0.5,1.6-0.5,2.4l0,3.2c0,1,0.2,1.7,0.5,2.2c0.3,0.5,0.8,0.8,1.3,0.9s1.3-0.2,2-0.6
				c0.5-0.3,1-0.7,1.4-1.1c0.4-0.4,0.8-0.9,1.1-1.4c0.3-0.5,0.5-1.1,0.7-1.7l4.4-2.2c-0.2,1.3-0.7,2.7-1.4,4
				c-0.7,1.3-1.6,2.5-2.6,3.6C150.3,571,149.1,572,147.7,572.8z M163.4,563.7c-1.1,0.6-2.1,1-2.9,1c-0.8,0-1.5-0.2-2-0.8
				c-0.5-0.6-0.7-1.5-0.7-2.8c0-1.1,0.2-2.1,0.5-3c0.3-0.9,0.8-1.8,1.4-2.6c0.6-0.8,1.3-1.5,2-2.2c0.8-0.7,1.6-1.3,2.4-1.9
				c1-0.7,1.8-1.3,2.4-1.7c0.6-0.5,1-0.9,1.3-1.2c0.3-0.4,0.4-0.8,0.4-1.2v-0.1c0-0.8-0.2-1.3-0.7-1.5c-0.4-0.2-1.1-0.1-1.9,0.4
				c-0.8,0.5-1.5,1.1-2,1.8c-0.5,0.7-0.8,1.4-1,2.2l-4.4,2.1c0.2-1.3,0.7-2.6,1.3-3.8c0.6-1.3,1.5-2.4,2.5-3.5c1-1.1,2.2-2,3.6-2.8
				c0.9-0.5,1.8-0.9,2.7-1.2c0.9-0.2,1.6-0.3,2.3-0.1c0.7,0.1,1.2,0.5,1.6,1.1c0.4,0.6,0.6,1.5,0.6,2.7l0,13.2l-4.5,2.6l0-2.7
				l-0.1,0.1c-0.3,0.8-0.6,1.5-1.1,2.3c-0.5,0.7-1,1.4-1.6,2C165,562.7,164.3,563.2,163.4,563.7z M164.8,559.2
				c0.7-0.4,1.3-0.9,1.8-1.5c0.5-0.6,0.9-1.3,1.3-2c0.3-0.7,0.5-1.4,0.5-2.1l0-2.1c-0.1,0.2-0.3,0.4-0.6,0.7
				c-0.3,0.2-0.5,0.5-0.9,0.7c-0.3,0.3-0.6,0.5-1,0.7c-0.3,0.2-0.6,0.4-0.9,0.6c-0.6,0.4-1,0.8-1.4,1.3c-0.4,0.4-0.7,0.9-1,1.4
				c-0.2,0.5-0.3,1-0.3,1.5c0,0.7,0.2,1.2,0.7,1.3C163.5,559.7,164.1,559.6,164.8,559.2z M176.7,555.7l0-19.6l4.6-2.6l0,3.4l0.2-0.1
				c0.3-1.4,0.8-2.6,1.6-3.7c0.7-1.1,1.6-1.9,2.5-2.4c0.2-0.1,0.5-0.3,0.8-0.4c0.3-0.1,0.5-0.2,0.7-0.3l0,4.8
				c-0.2,0.1-0.5,0.2-0.9,0.3c-0.4,0.2-0.7,0.3-1.1,0.5c-0.7,0.4-1.3,0.9-1.9,1.6c-0.5,0.7-1,1.4-1.3,2.2c-0.3,0.8-0.5,1.6-0.5,2.4
				l0,11.1L176.7,555.7z M196.7,544.1l0-26.2l15.3-8.8l0,4.6l-10.5,6.1l0,6.2l9.7-5.6l0,4.6l-9.7,5.6l0,6.3l10.5-6.1l0,4.6
				L196.7,544.1z M220.4,519l0,11.4l-4.7,2.7l0-19.6l4.5-2.6l0,3.5l0.2-0.1c0.4-1.4,1-2.6,1.9-3.8c0.9-1.2,2-2.1,3.2-2.9
				c1.2-0.7,2.2-1,3.1-0.9c0.9,0.1,1.6,0.5,2,1.4c0.5,0.8,0.7,2,0.7,3.5l0,12.5l-4.7,2.7l0-11.5c0-1.2-0.3-2-0.8-2.4
				c-0.5-0.4-1.3-0.3-2.2,0.3c-0.6,0.4-1.2,0.8-1.7,1.4c-0.5,0.6-0.9,1.3-1.1,2C220.6,517.4,220.4,518.2,220.4,519z M242.8,525.3
				c-1.5,0.9-2.8,1.4-3.9,1.5c-1.1,0.1-1.9,0-2.6-0.5c-0.6-0.5-1.1-1.1-1.3-2.1l4.4-3.2c0.1,0.3,0.3,0.6,0.6,0.7
				c0.3,0.2,0.7,0.2,1.1,0.2c0.5-0.1,1.1-0.3,1.7-0.7c1-0.6,1.9-1.4,2.5-2.3c0.7-1,1-2.1,1-3.5l0-3.6l-0.2,0.1
				c-0.2,0.7-0.5,1.4-0.9,2.1c-0.4,0.7-0.9,1.4-1.6,2.1c-0.6,0.7-1.4,1.3-2.3,1.8c-1.3,0.7-2.4,1.1-3.5,1c-1-0.1-1.9-0.7-2.5-1.7
				c-0.6-1.1-0.9-2.7-0.9-4.9c0-2.2,0.3-4.3,0.9-6.1c0.6-1.9,1.5-3.5,2.5-4.8c1-1.3,2.2-2.4,3.4-3.1c1-0.6,1.7-0.8,2.4-0.8
				c0.6,0,1.2,0.2,1.6,0.5c0.4,0.3,0.7,0.7,0.9,1.1l0.2-0.1l0-3.3l4.7-2.7l0,19.8c0,1.7-0.4,3.3-1.1,4.8c-0.7,1.5-1.7,2.9-2.9,4.2
				C245.8,523.2,244.4,524.3,242.8,525.3z M242.9,513.1c0.8-0.4,1.4-1,1.9-1.8c0.5-0.8,0.9-1.6,1.2-2.6c0.3-1,0.4-2.1,0.4-3.2
				c0-1.1-0.1-2.1-0.4-2.7c-0.3-0.7-0.7-1.1-1.2-1.3c-0.5-0.2-1.2,0-1.9,0.4c-0.8,0.4-1.4,1.1-2,1.9c-0.5,0.8-0.9,1.7-1.2,2.7
				c-0.3,1-0.4,2.1-0.4,3.2c0,1.1,0.1,2,0.4,2.7c0.3,0.7,0.7,1.1,1.2,1.2C241.4,513.7,242.1,513.5,242.9,513.1z M254.8,510.5l0-19.6
				l4.7-2.7l0,19.6L254.8,510.5z M257.2,487c-0.7,0.4-1.3,0.5-1.8,0.2c-0.5-0.3-0.7-0.8-0.7-1.5c0-0.8,0.2-1.5,0.7-2.4
				c0.5-0.8,1.1-1.5,1.8-1.9c0.7-0.4,1.3-0.5,1.8-0.2c0.5,0.2,0.8,0.7,0.8,1.5c0,0.8-0.2,1.6-0.8,2.4
				C258.5,486,257.9,486.6,257.2,487z M268,491.5l0,11.4l-4.7,2.7l0-19.6l4.5-2.6l0,3.5l0.2-0.1c0.4-1.4,1-2.6,1.9-3.8
				c0.9-1.2,2-2.1,3.2-2.9c1.2-0.7,2.2-1,3.1-0.9c0.9,0.1,1.6,0.5,2,1.4c0.5,0.8,0.7,2,0.7,3.5l0,12.5l-4.7,2.7l0-11.5
				c0-1.2-0.3-2-0.8-2.4c-0.5-0.4-1.3-0.3-2.2,0.3c-0.6,0.4-1.2,0.8-1.7,1.4c-0.5,0.6-0.9,1.3-1.1,2
				C268.2,489.9,268.1,490.7,268,491.5z M287.4,480.3l0,11.4l-4.7,2.7l0-19.6l4.5-2.6l0,3.5l0.2-0.1c0.4-1.4,1-2.6,1.9-3.8
				c0.9-1.2,2-2.1,3.2-2.9c1.2-0.7,2.2-1,3.1-0.9c0.9,0.1,1.6,0.5,2,1.4c0.5,0.8,0.7,2,0.7,3.5l0,12.5l-4.7,2.7l0-11.5
				c0-1.2-0.3-2-0.8-2.4c-0.5-0.4-1.3-0.3-2.2,0.3c-0.6,0.4-1.2,0.8-1.7,1.4c-0.5,0.6-0.9,1.3-1.1,2
				C287.6,478.7,287.4,479.5,287.4,480.3z M302.1,483.2l0-19.6l4.7-2.7l0,19.6L302.1,483.2z M304.5,459.7c-0.7,0.4-1.3,0.5-1.8,0.2
				c-0.5-0.3-0.7-0.8-0.7-1.5c0-0.8,0.2-1.5,0.7-2.4c0.5-0.8,1.1-1.5,1.8-1.9s1.3-0.5,1.8-0.2c0.5,0.2,0.8,0.7,0.8,1.5
				c0,0.8-0.3,1.6-0.8,2.4C305.8,458.6,305.2,459.3,304.5,459.7z M315.3,464.2l0,11.4l-4.7,2.7l0-19.6l4.5-2.6l0,3.5l0.2-0.1
				c0.4-1.4,1-2.6,1.9-3.8c0.9-1.2,2-2.1,3.2-2.9c1.2-0.7,2.2-1,3.1-0.9c0.9,0.1,1.6,0.5,2,1.4c0.5,0.8,0.7,2,0.7,3.5l0,12.5
				l-4.7,2.7l0-11.5c0-1.2-0.3-2-0.8-2.4c-0.5-0.4-1.3-0.3-2.2,0.3c-0.6,0.4-1.2,0.8-1.7,1.4c-0.5,0.6-0.9,1.3-1.1,2
				C315.5,462.6,315.3,463.4,315.3,464.2z M337.7,470.4c-1.5,0.9-2.8,1.4-3.9,1.5c-1.1,0.1-1.9,0-2.6-0.5c-0.6-0.5-1.1-1.1-1.3-2.1
				l4.4-3.2c0.1,0.3,0.3,0.6,0.6,0.7c0.3,0.2,0.7,0.2,1.1,0.2c0.5-0.1,1.1-0.3,1.7-0.7c1-0.6,1.9-1.4,2.5-2.3c0.7-1,1-2.1,1-3.5
				l0-3.6l-0.2,0.1c-0.2,0.7-0.5,1.4-0.9,2.1c-0.4,0.7-0.9,1.4-1.6,2.1c-0.6,0.7-1.4,1.3-2.3,1.8c-1.3,0.7-2.4,1.1-3.5,1
				c-1-0.1-1.9-0.7-2.5-1.7c-0.6-1.1-0.9-2.7-0.9-4.9c0-2.2,0.3-4.3,0.9-6.1c0.6-1.9,1.5-3.5,2.5-4.8c1-1.3,2.2-2.4,3.4-3.1
				c1-0.5,1.7-0.8,2.4-0.8c0.6,0,1.2,0.2,1.6,0.5c0.4,0.3,0.7,0.7,0.9,1.1l0.2-0.1l0-3.3l4.7-2.7l0,19.8c0,1.7-0.4,3.3-1.1,4.8
				c-0.7,1.5-1.7,2.9-2.9,4.2C340.7,468.4,339.3,469.5,337.7,470.4z M337.8,458.2c0.8-0.4,1.4-1,1.9-1.8c0.5-0.8,0.9-1.6,1.2-2.6
				c0.3-1,0.4-2.1,0.4-3.2c0-1.1-0.1-2.1-0.4-2.7c-0.3-0.7-0.7-1.1-1.2-1.3c-0.5-0.2-1.2,0-1.9,0.4c-0.8,0.4-1.4,1.1-2,1.9
				c-0.5,0.8-0.9,1.7-1.2,2.7c-0.3,1-0.4,2.1-0.4,3.2c0,1.1,0.1,2,0.4,2.7c0.3,0.7,0.7,1.1,1.2,1.2
				C336.3,458.8,337,458.7,337.8,458.2z M39.1,681.2l-4.3,2.8c-0.1-0.4-0.2-0.7-0.5-0.9c-0.2-0.2-0.6-0.3-1-0.3
				c-0.4,0-0.9,0.2-1.4,0.5c-0.7,0.4-1.3,1-1.8,1.6c-0.5,0.6-0.8,1.3-0.8,1.8c0,0.5,0.2,0.8,0.5,0.9c0.3,0.1,0.9,0.1,1.7-0.2
				l3.1-1.1c1.7-0.6,2.9-0.6,3.7-0.2c0.8,0.4,1.2,1.3,1.2,2.7c0,1.3-0.3,2.6-1,4c-0.6,1.3-1.5,2.6-2.7,3.8c-1.1,1.2-2.4,2.2-3.9,3.1
				c-2.3,1.3-4,1.8-5.4,1.5c-1.3-0.3-2.1-1.4-2.3-3.1l4.6-3c0.1,0.7,0.5,1.1,1,1.2c0.5,0.1,1.2-0.1,2.1-0.6c0.8-0.5,1.5-1,2-1.7
				c0.5-0.7,0.8-1.3,0.8-1.9c0-0.5-0.2-0.8-0.5-0.9c-0.4-0.1-0.9-0.1-1.6,0.2l-2.9,1c-1.7,0.6-2.9,0.6-3.7,0.1
				c-0.8-0.5-1.2-1.5-1.2-2.9c0-1.3,0.3-2.5,0.9-3.8c0.6-1.3,1.4-2.4,2.5-3.6c1.1-1.1,2.4-2.1,3.8-2.9c2.1-1.2,3.8-1.7,5.1-1.4
				C38.1,678.5,38.9,679.5,39.1,681.2z M51.5,668.4l0,4.1l-10.2,5.9l0-4.1L51.5,668.4z M43.5,668.3l4.7-2.7l0,18.3
				c0,0.5,0.1,0.9,0.2,1.1c0.1,0.2,0.3,0.3,0.6,0.3c0.2,0,0.5-0.1,0.8-0.3c0.2-0.1,0.4-0.3,0.7-0.4c0.2-0.2,0.4-0.3,0.5-0.4l0.7,3.6
				c-0.2,0.2-0.6,0.5-1,0.9c-0.4,0.4-0.9,0.7-1.6,1.1c-1.1,0.7-2.1,1.1-3,1.2c-0.8,0.1-1.5-0.2-2-0.7c-0.5-0.6-0.7-1.5-0.7-2.8
				L43.5,668.3z M65.4,671.6l0-11.3l4.7-2.7l0,19.6l-4.5,2.6l0-3.6l-0.2,0.1c-0.4,1.4-1,2.7-1.9,3.9c-0.9,1.2-2,2.2-3.2,2.9
				c-1.1,0.7-2.1,0.9-3,0.8c-0.9-0.1-1.5-0.6-2-1.4c-0.5-0.8-0.7-2-0.7-3.5l0-12.5l4.7-2.7l0,11.5c0,1.2,0.3,1.9,0.8,2.3
				c0.5,0.4,1.2,0.3,2.1-0.2c0.6-0.3,1.1-0.8,1.6-1.4c0.5-0.6,0.9-1.3,1.2-2C65.3,673.3,65.4,672.5,65.4,671.6z M80.2,671.8
				c-1.3,0.7-2.5,1-3.5,0.9c-1-0.2-1.9-0.8-2.5-2c-0.6-1.2-0.9-2.8-0.9-5c0-2.2,0.3-4.3,0.9-6.2c0.6-1.9,1.5-3.5,2.5-4.8
				c1-1.4,2.2-2.4,3.4-3.1c1-0.5,1.7-0.8,2.4-0.8c0.6,0,1.2,0.2,1.6,0.5c0.4,0.3,0.7,0.7,0.9,1.1l0.1-0.1l0-9.8l4.7-2.7l0,26.2
				l-4.6,2.7l0-3.1l-0.2,0.1c-0.2,0.7-0.5,1.4-0.9,2.2c-0.4,0.8-0.9,1.5-1.6,2.2C81.9,670.6,81.1,671.2,80.2,671.8z M81.7,666.6
				c0.8-0.4,1.4-1,1.9-1.8c0.5-0.8,0.9-1.7,1.2-2.7c0.3-1,0.4-2.1,0.4-3.3c0-1.2-0.1-2.1-0.4-2.8c-0.3-0.7-0.7-1.1-1.2-1.3
				c-0.5-0.2-1.2,0-1.9,0.4c-0.8,0.4-1.4,1.1-2,1.9c-0.5,0.8-0.9,1.7-1.2,2.7c-0.3,1-0.4,2.1-0.4,3.2c0,1.1,0.1,2.1,0.4,2.8
				c0.3,0.7,0.7,1.2,1.2,1.3C80.3,667.2,80.9,667,81.7,666.6z M101.5,659.5c-1.7,1-3.3,1.5-4.5,1.4c-1.3-0.1-2.2-0.7-2.9-1.8
				c-0.7-1.1-1-2.7-1-4.8c0-2,0.3-4,1-5.9c0.7-1.9,1.6-3.7,2.9-5.2c1.2-1.6,2.7-2.8,4.4-3.8c1.1-0.6,2.2-1,3.1-1.2
				c1-0.2,1.8,0,2.5,0.4c0.7,0.4,1.3,1.1,1.7,2.1c0.4,1,0.6,2.4,0.6,4l0,1.5l-14.4,8.3l0-3.4l9.9-5.7c0-0.8-0.1-1.4-0.4-1.8
				c-0.3-0.4-0.7-0.7-1.2-0.7c-0.5-0.1-1.1,0.1-1.8,0.5c-0.7,0.4-1.4,1-1.9,1.7c-0.5,0.7-1,1.4-1.3,2.3c-0.3,0.8-0.5,1.6-0.5,2.4
				l0,3.2c0,1,0.2,1.7,0.5,2.2c0.3,0.5,0.8,0.8,1.3,0.9c0.6,0.1,1.3-0.2,2-0.6c0.5-0.3,1-0.7,1.4-1.1c0.4-0.4,0.8-0.9,1.1-1.4
				s0.5-1.1,0.7-1.7l4.4-2.2c-0.2,1.3-0.7,2.7-1.4,4c-0.7,1.3-1.6,2.5-2.6,3.6C104.1,657.8,102.9,658.7,101.5,659.5z M117.1,638.8
				l0,11.4l-4.7,2.7l0-19.6l4.5-2.6l0,3.5l0.2-0.1c0.4-1.4,1-2.6,1.9-3.8c0.9-1.2,2-2.1,3.2-2.9c1.2-0.7,2.2-1,3.1-0.9
				c0.9,0.1,1.6,0.5,2,1.4c0.5,0.8,0.7,2,0.7,3.5l0,12.5l-4.7,2.7l0-11.5c0-1.2-0.3-2-0.8-2.4c-0.5-0.4-1.3-0.3-2.2,0.3
				c-0.6,0.4-1.2,0.8-1.7,1.4c-0.5,0.6-0.9,1.3-1.1,2C117.2,637.1,117.1,637.9,117.1,638.8z M140.8,616.8l0,4.1l-10.2,5.9l0-4.1
				L140.8,616.8z M132.9,616.7l4.7-2.7l0,18.3c0,0.5,0.1,0.9,0.2,1.1c0.1,0.2,0.3,0.3,0.6,0.3c0.2,0,0.5-0.1,0.8-0.3
				c0.2-0.1,0.4-0.3,0.7-0.4c0.2-0.2,0.4-0.3,0.5-0.4l0.7,3.6c-0.2,0.2-0.6,0.5-1,0.9c-0.4,0.4-0.9,0.7-1.6,1.1
				c-1.1,0.7-2.1,1.1-3,1.2c-0.8,0.1-1.5-0.2-2-0.7c-0.5-0.6-0.7-1.5-0.7-2.8L132.9,616.7z M156.2,623.9l-0.1,1.5
				c-0.1,1.2-0.3,2.4-0.6,3.7c-0.3,1.3-0.5,2.5-0.8,3.5c-0.3,1.1-0.5,1.9-0.7,2.6l-3.1,1.8c0.1-0.6,0.3-1.4,0.5-2.4
				c0.2-1,0.4-2.1,0.5-3.3c0.2-1.2,0.3-2.4,0.3-3.6l0.1-1.5L156.2,623.9z M170,619.5l-4.6-17l4.8-2.8l2.6,11.7l0.2-0.1l2.7-14.8
				l4.7-2.7l2.8,11.5l0.1-0.1l2.6-14.6l4.8-2.8l-4.6,22.3l-5,2.9l-2.9-10.7l-0.2,0.1l-2.9,14L170,619.5z M193.2,606.2l0-19.6
				l4.6-2.6l0,3.4l0.2-0.1c0.3-1.4,0.8-2.6,1.6-3.7c0.7-1.1,1.6-1.9,2.5-2.4c0.2-0.1,0.5-0.3,0.8-0.4c0.3-0.1,0.5-0.2,0.7-0.3l0,4.8
				c-0.2,0.1-0.5,0.2-0.9,0.3c-0.4,0.2-0.7,0.3-1.1,0.5c-0.7,0.4-1.3,0.9-1.9,1.6c-0.5,0.7-1,1.4-1.3,2.2c-0.3,0.8-0.5,1.6-0.5,2.4
				l0,11.1L193.2,606.2z M205.9,598.8l0-19.6l4.7-2.7l0,19.6L205.9,598.8z M208.3,575.2c-0.7,0.4-1.3,0.5-1.8,0.2
				c-0.5-0.3-0.7-0.8-0.7-1.5c0-0.8,0.2-1.5,0.7-2.4c0.5-0.8,1.1-1.5,1.8-1.9s1.3-0.5,1.8-0.2c0.5,0.2,0.8,0.7,0.8,1.5
				c0,0.8-0.3,1.6-0.8,2.4C209.6,574.2,209,574.8,208.3,575.2z M223.5,569l0,4.1l-10.2,5.9l0-4.1L223.5,569z M215.6,568.9l4.7-2.7
				l0,18.3c0,0.5,0.1,0.9,0.2,1.1c0.1,0.2,0.3,0.3,0.6,0.3c0.2,0,0.5-0.1,0.8-0.3c0.2-0.1,0.4-0.3,0.7-0.4c0.2-0.2,0.4-0.3,0.5-0.4
				l0.7,3.6c-0.2,0.2-0.6,0.5-1,0.9c-0.4,0.4-0.9,0.7-1.6,1.1c-1.1,0.7-2.1,1.1-3,1.2c-0.8,0.1-1.5-0.2-2-0.7
				c-0.5-0.6-0.7-1.5-0.7-2.8L215.6,568.9z M226.6,586.9l0-19.6l4.7-2.7l0,19.6L226.6,586.9z M228.9,563.3c-0.7,0.4-1.3,0.5-1.8,0.2
				c-0.5-0.3-0.7-0.8-0.7-1.5c0-0.8,0.2-1.5,0.7-2.4c0.5-0.8,1.1-1.5,1.8-1.9c0.7-0.4,1.3-0.5,1.8-0.2c0.5,0.2,0.8,0.7,0.8,1.5
				c0,0.8-0.3,1.6-0.8,2.4C230.2,562.3,229.6,562.9,228.9,563.3z M239.8,567.9l0,11.4L235,582l0-19.6l4.5-2.6l0,3.5l0.2-0.1
				c0.4-1.4,1-2.6,1.9-3.8c0.9-1.2,2-2.1,3.2-2.9c1.2-0.7,2.2-1,3.1-0.9c0.9,0.1,1.6,0.5,2,1.4c0.5,0.8,0.7,2,0.7,3.5l0,12.5
				l-4.7,2.7l0-11.5c0-1.2-0.3-2-0.8-2.4c-0.5-0.4-1.3-0.3-2.2,0.3c-0.6,0.4-1.2,0.8-1.7,1.4c-0.5,0.6-0.9,1.3-1.1,2
				C239.9,566.2,239.8,567,239.8,567.9z M262.1,574.1c-1.5,0.9-2.8,1.4-3.9,1.5c-1.1,0.1-1.9,0-2.6-0.5c-0.6-0.5-1.1-1.1-1.3-2.1
				l4.4-3.2c0.1,0.3,0.3,0.6,0.6,0.7s0.7,0.2,1.1,0.2c0.5-0.1,1.1-0.3,1.7-0.7c1-0.6,1.9-1.4,2.5-2.3c0.7-1,1-2.1,1-3.5l0-3.6
				l-0.2,0.1c-0.2,0.7-0.5,1.4-0.9,2.1c-0.4,0.7-0.9,1.4-1.6,2.1c-0.6,0.7-1.4,1.3-2.3,1.8c-1.3,0.7-2.4,1.1-3.5,1
				c-1-0.1-1.9-0.7-2.5-1.7c-0.6-1.1-0.9-2.7-0.9-4.9c0-2.2,0.3-4.3,0.9-6.1c0.6-1.9,1.5-3.5,2.5-4.8c1-1.3,2.2-2.4,3.4-3.1
				c1-0.5,1.7-0.8,2.4-0.8c0.6,0,1.2,0.2,1.5,0.5c0.4,0.3,0.7,0.7,0.9,1.1l0.2-0.1l0-3.3l4.7-2.7l0,19.8c0,1.7-0.4,3.3-1.1,4.8
				c-0.7,1.5-1.7,2.9-2.9,4.2C265.2,572.1,263.7,573.2,262.1,574.1z M262.2,561.9c0.8-0.4,1.4-1,1.9-1.8c0.5-0.8,0.9-1.6,1.2-2.6
				c0.3-1,0.4-2.1,0.4-3.2c0-1.2-0.1-2.1-0.4-2.7c-0.3-0.7-0.7-1.1-1.2-1.3c-0.5-0.2-1.2,0-1.9,0.4c-0.8,0.4-1.4,1.1-2,1.9
				c-0.5,0.8-0.9,1.7-1.2,2.7c-0.3,1-0.4,2.1-0.4,3.2c0,1.1,0.1,2,0.4,2.7c0.3,0.7,0.7,1.1,1.2,1.2
				C260.8,562.5,261.4,562.4,262.2,561.9z M289.1,551.1c-1.7,1-3.2,1.4-4.5,1.3c-1.2-0.1-2.2-0.8-2.9-1.9c-0.7-1.1-1-2.7-1-4.7
				c0-2,0.3-4,1-5.9c0.7-1.9,1.6-3.7,2.9-5.2c1.2-1.6,2.7-2.9,4.4-3.9c1.5-0.9,2.8-1.3,3.9-1.3c1.1,0,2,0.3,2.6,1.1
				c0.6,0.7,1,1.9,1.1,3.3l-4.4,2.6c-0.1-0.9-0.5-1.5-1-1.8c-0.5-0.3-1.2-0.2-2.1,0.3c-0.7,0.4-1.4,1-1.9,1.8
				c-0.5,0.8-1,1.7-1.3,2.7c-0.3,1-0.5,2.2-0.5,3.4c0,1.3,0.1,2.2,0.4,2.9c0.3,0.7,0.7,1.1,1.3,1.3c0.5,0.1,1.2,0,1.9-0.4
				c0.5-0.3,1-0.7,1.5-1.2c0.4-0.5,0.8-1.1,1.1-1.7c0.3-0.7,0.5-1.4,0.6-2.1l4.5-2.6c-0.1,1.5-0.4,3.1-1.1,4.6
				c-0.6,1.5-1.5,2.9-2.6,4.2C291.9,549.2,290.6,550.3,289.1,551.1z M307.4,540.6c-1.7,1-3.2,1.4-4.5,1.3c-1.2-0.1-2.2-0.8-2.9-1.9
				c-0.7-1.1-1-2.7-1-4.7c0-2,0.3-4,1-5.9c0.7-1.9,1.6-3.7,2.9-5.2c1.3-1.6,2.7-2.9,4.5-3.9c1.7-1,3.2-1.4,4.5-1.3
				c1.3,0.1,2.2,0.7,2.9,1.9c0.7,1.1,1,2.7,1,4.7c0,2-0.3,4-1,5.9c-0.7,1.9-1.6,3.7-2.9,5.2C310.6,538.3,309.1,539.6,307.4,540.6z
				 M307.4,536.3c0.8-0.5,1.4-1.1,2-1.9c0.5-0.8,0.9-1.8,1.2-2.8c0.3-1.1,0.4-2.2,0.4-3.3c0-1.1-0.1-2.1-0.4-2.8
				c-0.3-0.7-0.7-1.2-1.2-1.4c-0.5-0.2-1.2-0.1-2,0.4c-0.8,0.5-1.5,1.1-2,1.9c-0.5,0.8-0.9,1.8-1.2,2.8c-0.3,1-0.4,2.1-0.4,3.3
				c0,1.1,0.1,2.1,0.4,2.8c0.3,0.7,0.7,1.2,1.2,1.4C305.9,536.9,306.6,536.8,307.4,536.3z M325.1,530.3c-1.3,0.7-2.5,1-3.5,0.9
				c-1-0.2-1.9-0.8-2.5-2c-0.6-1.2-0.9-2.8-0.9-5c0-2.2,0.3-4.3,0.9-6.2c0.6-1.9,1.5-3.5,2.5-4.8c1-1.4,2.2-2.4,3.4-3.1
				c1-0.5,1.7-0.8,2.4-0.8c0.6,0,1.2,0.2,1.6,0.5c0.4,0.3,0.7,0.7,0.9,1.1l0.1-0.1l0-9.8l4.7-2.7l0,26.2l-4.6,2.7l0-3.1l-0.2,0.1
				c-0.2,0.7-0.5,1.4-0.9,2.2c-0.4,0.8-0.9,1.5-1.6,2.2C326.7,529.1,326,529.8,325.1,530.3z M326.5,525.1c0.8-0.4,1.4-1,1.9-1.8
				c0.5-0.8,0.9-1.7,1.2-2.7c0.3-1,0.4-2.1,0.4-3.3c0-1.2-0.1-2.1-0.4-2.8c-0.3-0.7-0.7-1.1-1.2-1.3c-0.5-0.2-1.2,0-1.9,0.4
				c-0.8,0.4-1.4,1.1-2,1.9c-0.5,0.8-0.9,1.7-1.2,2.7c-0.3,1-0.4,2.1-0.4,3.2c0,1.1,0.1,2.1,0.4,2.8c0.3,0.7,0.7,1.2,1.2,1.3
				C325.1,525.7,325.8,525.5,326.5,525.1z M346.4,518c-1.7,1-3.3,1.5-4.5,1.4c-1.3-0.1-2.2-0.7-2.9-1.8c-0.7-1.1-1-2.7-1-4.8
				c0-2,0.3-4,1-5.9c0.7-1.9,1.6-3.7,2.9-5.2c1.2-1.6,2.7-2.8,4.4-3.8c1.1-0.6,2.2-1,3.1-1.2c1-0.2,1.8,0,2.5,0.4
				c0.7,0.4,1.3,1.1,1.7,2.1c0.4,1,0.6,2.4,0.6,4l0,1.5l-14.4,8.3l0-3.4l9.9-5.7c0-0.8-0.1-1.4-0.4-1.8c-0.3-0.4-0.7-0.7-1.2-0.7
				c-0.5-0.1-1.1,0.1-1.8,0.5c-0.7,0.4-1.3,1-1.9,1.7c-0.5,0.7-1,1.4-1.3,2.3c-0.3,0.8-0.5,1.6-0.5,2.4l0,3.2c0,1,0.2,1.7,0.5,2.2
				c0.3,0.5,0.8,0.8,1.3,0.9c0.6,0.1,1.3-0.2,2-0.6c0.5-0.3,1-0.7,1.4-1.1c0.4-0.4,0.8-0.9,1.1-1.4c0.3-0.5,0.5-1.1,0.7-1.7l4.4-2.2
				c-0.2,1.3-0.7,2.7-1.4,4c-0.7,1.3-1.6,2.5-2.6,3.6C349,516.3,347.8,517.2,346.4,518z M28.3,761.4l-4.6-17l4.8-2.8l2.6,11.7
				l0.2-0.1l2.7-14.8l4.7-2.7l2.8,11.5l0.1-0.1l2.6-14.6l4.8-2.8l-4.6,22.3l-5,2.9l-2.9-10.7l-0.2,0.1l-2.9,14L28.3,761.4z
				 M51.5,748.1l0-19.6l4.7-2.7l0,19.6L51.5,748.1z M53.8,724.5c-0.7,0.4-1.3,0.5-1.8,0.2c-0.5-0.3-0.7-0.8-0.7-1.5
				c0-0.8,0.2-1.5,0.7-2.4c0.5-0.8,1.1-1.5,1.8-1.9c0.7-0.4,1.3-0.5,1.8-0.2c0.5,0.2,0.8,0.7,0.8,1.5c0,0.8-0.3,1.6-0.8,2.4
				C55.1,723.5,54.5,724.1,53.8,724.5z M69,718.3l0,4.1l-10.2,5.9l0-4.1L69,718.3z M61.1,718.2l4.7-2.7l0,18.3
				c0,0.5,0.1,0.9,0.2,1.1c0.1,0.2,0.3,0.3,0.6,0.3c0.2,0,0.5-0.1,0.8-0.3c0.2-0.1,0.4-0.3,0.7-0.4c0.2-0.2,0.4-0.3,0.5-0.4l0.7,3.6
				c-0.2,0.2-0.6,0.5-1,0.9c-0.4,0.4-0.9,0.7-1.6,1.1c-1.1,0.7-2.1,1.1-3,1.2c-0.8,0.1-1.5-0.2-2-0.7s-0.7-1.5-0.7-2.8L61.1,718.2z
				 M77.1,721.9l0,11.4l-4.7,2.7l0-26.2l4.6-2.6l0,10l0.2-0.1c0.4-1.4,1-2.6,1.9-3.8c0.9-1.2,1.9-2.1,3.2-2.9c1.2-0.7,2.2-1,3.1-0.9
				c0.9,0.1,1.6,0.5,2.1,1.4c0.5,0.8,0.7,2,0.7,3.5l0,12.5l-4.7,2.7l0-11.5c0-1.2-0.3-2-0.8-2.4c-0.5-0.4-1.3-0.3-2.2,0.3
				c-0.6,0.4-1.2,0.9-1.7,1.5c-0.5,0.6-0.9,1.3-1.2,2C77.3,720.2,77.1,721,77.1,721.9z M99.1,727.9l0-27l4.6-2.7l0,3.3l0.2-0.1
				c0.2-0.6,0.5-1.4,0.9-2.1c0.4-0.8,0.9-1.5,1.5-2.3c0.6-0.7,1.4-1.4,2.4-1.9c1.2-0.7,2.4-1,3.4-0.9c1,0.1,1.9,0.8,2.5,1.9
				c0.6,1.1,0.9,2.8,0.9,5.1c0,2.2-0.3,4.2-0.9,6.1c-0.6,1.8-1.4,3.5-2.5,4.8c-1,1.4-2.2,2.4-3.5,3.2c-0.9,0.5-1.7,0.8-2.3,0.8
				c-0.6,0-1.2-0.1-1.6-0.4c-0.4-0.3-0.7-0.7-0.9-1.1l-0.1,0.1l0,10.5L99.1,727.9z M103.7,708.1c0,1.2,0.1,2.1,0.4,2.8
				c0.3,0.7,0.7,1.2,1.2,1.3c0.5,0.2,1.2,0,1.9-0.4c0.8-0.4,1.4-1.1,1.9-1.9c0.5-0.8,0.9-1.7,1.2-2.7c0.3-1,0.4-2.1,0.4-3.3
				c0-1.1-0.1-2.1-0.4-2.8s-0.7-1.1-1.2-1.3c-0.5-0.2-1.2,0-2,0.4c-0.8,0.4-1.4,1.1-1.9,1.8c-0.5,0.8-0.9,1.7-1.2,2.7
				S103.7,706.9,103.7,708.1z M121.2,715.1c-0.6,0.3-1.2,0.6-1.7,0.8c-0.5,0.2-0.9,0.3-1.3,0.3l1.1-4.7c0.6-0.1,1.1-0.3,1.5-0.5
				c0.5-0.2,0.8-0.6,1.2-1c0.3-0.4,0.6-1,0.8-1.8l0.3-1l-6.1-16.7l5-2.9l3.5,12.4l0.2-0.1l3.5-16.5l5-2.9l-6.6,25.6
				c-0.3,1.2-0.7,2.4-1.3,3.5c-0.5,1.1-1.2,2.1-2,3C123.3,713.7,122.3,714.5,121.2,715.1z M145.6,674l0,4.1l-10.2,5.9l0-4.1
				L145.6,674z M137.7,673.9l4.7-2.7l0,18.3c0,0.5,0.1,0.9,0.2,1.1c0.1,0.2,0.3,0.3,0.6,0.3c0.2,0,0.5-0.1,0.8-0.3
				c0.2-0.1,0.4-0.3,0.7-0.4c0.2-0.2,0.4-0.3,0.5-0.4l0.7,3.6c-0.2,0.2-0.6,0.5-1,0.9c-0.4,0.4-0.9,0.7-1.6,1.1
				c-1.1,0.7-2.1,1.1-3,1.2c-0.8,0.1-1.5-0.2-2-0.7c-0.5-0.6-0.7-1.5-0.7-2.8L137.7,673.9z M153.7,677.6l0,11.4l-4.7,2.7l0-26.2
				l4.6-2.6l0,10l0.2-0.1c0.4-1.4,1-2.6,1.9-3.8c0.9-1.2,1.9-2.1,3.2-2.9c1.2-0.7,2.2-1,3.1-0.9c0.9,0.1,1.6,0.5,2.1,1.4
				c0.5,0.8,0.7,2,0.7,3.5l0,12.5l-4.7,2.7l0-11.5c0-1.2-0.3-2-0.8-2.4c-0.5-0.4-1.3-0.3-2.2,0.3c-0.6,0.4-1.2,0.9-1.7,1.5
				c-0.5,0.6-0.9,1.3-1.2,2C153.9,676,153.7,676.8,153.7,677.6z M176.1,676.4c-1.7,1-3.2,1.4-4.5,1.3c-1.2-0.1-2.2-0.8-2.9-1.9
				c-0.7-1.1-1-2.7-1-4.7c0-2,0.3-4,1-5.9c0.7-1.9,1.6-3.7,2.9-5.2c1.3-1.6,2.7-2.9,4.5-3.9c1.7-1,3.2-1.4,4.5-1.3
				c1.3,0.1,2.2,0.7,2.9,1.9c0.7,1.1,1,2.7,1,4.7c0,2-0.3,4-1,5.9c-0.7,1.9-1.6,3.7-2.9,5.2C179.3,674.1,177.9,675.4,176.1,676.4z
				 M176.2,672.2c0.8-0.5,1.4-1.1,2-1.9c0.5-0.8,0.9-1.8,1.2-2.8c0.3-1.1,0.4-2.2,0.4-3.3c0-1.1-0.1-2.1-0.4-2.8
				c-0.3-0.7-0.7-1.2-1.2-1.4c-0.5-0.2-1.2-0.1-2,0.4c-0.8,0.5-1.5,1.1-2,1.9c-0.5,0.8-0.9,1.8-1.2,2.8c-0.3,1-0.4,2.1-0.4,3.3
				c0,1.1,0.1,2.1,0.4,2.8c0.3,0.7,0.7,1.2,1.2,1.4C174.7,672.8,175.4,672.6,176.2,672.2z M192.3,655.3l0,11.4l-4.7,2.7l0-19.6
				l4.5-2.6l0,3.5l0.2-0.1c0.4-1.4,1-2.6,1.9-3.8c0.9-1.2,2-2.1,3.2-2.9c1.2-0.7,2.2-1,3.1-0.9c0.9,0.1,1.6,0.5,2,1.4
				c0.5,0.8,0.7,2,0.7,3.5l0,12.5l-4.7,2.7l0-11.5c0-1.2-0.3-2-0.8-2.4c-0.5-0.4-1.3-0.3-2.2,0.3c-0.6,0.4-1.2,0.8-1.7,1.4
				c-0.5,0.6-0.9,1.3-1.1,2C192.4,653.7,192.3,654.5,192.3,655.3z M212.1,651.7l-0.1,1.5c-0.1,1.2-0.3,2.4-0.6,3.7
				c-0.3,1.3-0.5,2.5-0.8,3.5c-0.3,1.1-0.5,1.9-0.7,2.6l-3.1,1.8c0.1-0.6,0.3-1.4,0.5-2.4c0.2-1,0.4-2.1,0.5-3.3
				c0.2-1.2,0.3-2.4,0.3-3.6l0.1-1.5L212.1,651.7z M34.1,791.9l4.7-2.7l0,18.3c0,1.7-0.3,3.3-1,5c-0.6,1.6-1.6,3.1-2.7,4.4
				c-1.2,1.3-2.5,2.5-4,3.3c-1.4,0.8-2.6,1.2-3.7,1.3c-1.1,0.1-2-0.3-2.6-1c-0.6-0.8-1-2-1-3.8l4.8-2.8c0,0.7,0.1,1.2,0.4,1.6
				c0.2,0.3,0.6,0.5,1,0.6c0.4,0,0.9-0.1,1.5-0.5c0.6-0.3,1.1-0.8,1.5-1.3c0.4-0.5,0.7-1.2,0.9-1.8s0.3-1.5,0.3-2.3L34.1,791.9z
				 M47.6,810.7c-1.1,0.6-2.1,1-2.9,1c-0.8,0-1.5-0.2-2-0.8c-0.5-0.6-0.7-1.5-0.7-2.8c0-1.1,0.2-2.1,0.5-3c0.3-0.9,0.8-1.8,1.4-2.6
				c0.6-0.8,1.3-1.5,2-2.2c0.8-0.7,1.6-1.3,2.4-1.9c1-0.7,1.8-1.3,2.4-1.7c0.6-0.5,1-0.9,1.3-1.2c0.3-0.4,0.4-0.8,0.4-1.2v-0.1
				c0-0.8-0.2-1.3-0.7-1.5c-0.4-0.2-1.1-0.1-1.9,0.4c-0.8,0.5-1.5,1.1-2,1.8c-0.5,0.7-0.8,1.4-1,2.2l-4.4,2.1
				c0.2-1.3,0.7-2.6,1.3-3.8c0.6-1.3,1.5-2.4,2.5-3.5c1-1.1,2.2-2,3.6-2.8c0.9-0.5,1.8-0.9,2.7-1.2c0.9-0.2,1.6-0.3,2.3-0.1
				c0.7,0.1,1.2,0.5,1.6,1.1c0.4,0.6,0.6,1.5,0.6,2.7l0,13.2l-4.5,2.6l0-2.7l-0.1,0.1c-0.3,0.8-0.6,1.5-1.1,2.3
				c-0.5,0.7-1,1.4-1.6,2C49.2,809.6,48.4,810.2,47.6,810.7z M48.9,806.1c0.7-0.4,1.3-0.9,1.8-1.5c0.5-0.6,0.9-1.3,1.3-2
				c0.3-0.7,0.5-1.4,0.5-2.1l0-2.1c-0.1,0.2-0.4,0.4-0.6,0.7c-0.3,0.2-0.5,0.5-0.9,0.7c-0.3,0.3-0.6,0.5-1,0.7
				c-0.3,0.2-0.6,0.4-0.9,0.6c-0.6,0.4-1,0.8-1.4,1.3c-0.4,0.4-0.7,0.9-1,1.4c-0.2,0.5-0.3,1-0.3,1.5c0,0.7,0.2,1.2,0.7,1.3
				C47.6,806.7,48.2,806.6,48.9,806.1z M76.1,774.2l-5.9,23.1l-5.3,3.1l-6-16.2l5-2.9l3.5,12l0.2-0.1l3.5-16.1L76.1,774.2z
				 M82.9,790.3c-1.1,0.6-2.1,1-2.9,1c-0.8,0-1.5-0.2-2-0.8c-0.5-0.6-0.7-1.5-0.7-2.8c0-1.1,0.2-2.1,0.5-3c0.3-0.9,0.8-1.8,1.4-2.6
				c0.6-0.8,1.3-1.5,2-2.2c0.8-0.7,1.6-1.3,2.4-1.9c1-0.7,1.8-1.3,2.4-1.7c0.6-0.5,1-0.9,1.3-1.2c0.3-0.4,0.4-0.8,0.4-1.2v-0.1
				c0-0.8-0.2-1.3-0.7-1.5c-0.4-0.2-1.1-0.1-1.9,0.4c-0.8,0.5-1.5,1.1-2,1.8c-0.5,0.7-0.8,1.4-1,2.2l-4.4,2.1
				c0.2-1.3,0.7-2.6,1.3-3.8c0.6-1.3,1.5-2.4,2.5-3.5c1-1.1,2.2-2,3.6-2.8c0.9-0.5,1.8-0.9,2.7-1.2c0.9-0.2,1.6-0.3,2.3-0.1
				c0.7,0.1,1.2,0.5,1.6,1.1c0.4,0.6,0.6,1.5,0.6,2.7l0,13.2L88,787l0-2.7l-0.1,0.1c-0.3,0.8-0.6,1.5-1.1,2.3c-0.5,0.7-1,1.4-1.6,2
				C84.4,789.3,83.7,789.8,82.9,790.3z M84.2,785.8c0.7-0.4,1.3-0.9,1.8-1.5c0.5-0.6,0.9-1.3,1.3-2c0.3-0.7,0.5-1.4,0.5-2.1l0-2.1
				c-0.1,0.2-0.4,0.4-0.6,0.7c-0.3,0.2-0.5,0.5-0.9,0.7c-0.3,0.3-0.6,0.5-1,0.7c-0.3,0.2-0.6,0.4-0.9,0.6c-0.6,0.4-1,0.8-1.4,1.3
				c-0.4,0.4-0.7,0.9-1,1.4c-0.2,0.5-0.3,1-0.3,1.5c0,0.7,0.2,1.2,0.7,1.3C82.9,786.3,83.5,786.2,84.2,785.8z M108.5,756.5
				c-0.1-1-0.5-1.6-1.1-1.7c-0.7-0.2-1.6,0.1-2.7,0.7c-0.8,0.5-1.4,1-2,1.5c-0.5,0.6-1,1.1-1.2,1.8c-0.3,0.6-0.4,1.2-0.4,1.8
				c0,0.5,0.1,0.8,0.3,1.1c0.2,0.2,0.5,0.4,0.8,0.5c0.3,0.1,0.7,0.1,1.2,0c0.4-0.1,0.9-0.2,1.4-0.3l2-0.6c1-0.3,1.9-0.5,2.7-0.5
				c0.8-0.1,1.5,0.1,2.1,0.3c0.6,0.3,1.1,0.7,1.4,1.4c0.3,0.6,0.5,1.5,0.5,2.6c0,1.6-0.4,3.2-1.1,4.8c-0.7,1.6-1.7,3.1-3,4.5
				c-1.3,1.4-2.9,2.6-4.7,3.7c-1.8,1.1-3.4,1.7-4.8,1.8c-1.4,0.1-2.4-0.2-3.2-1c-0.8-0.8-1.1-2.2-1.2-4.1l4.6-2.7
				c0.1,0.8,0.3,1.5,0.7,1.8c0.4,0.4,0.9,0.5,1.6,0.4c0.7-0.1,1.4-0.4,2.2-0.9c0.8-0.5,1.5-1,2.1-1.6c0.6-0.6,1.1-1.3,1.4-2
				c0.3-0.7,0.5-1.3,0.5-2c0-0.6-0.2-1-0.5-1.2c-0.3-0.2-0.7-0.3-1.3-0.3c-0.6,0-1.3,0.2-2.1,0.4l-2.5,0.7c-1.9,0.6-3.4,0.6-4.5,0.1
				c-1.1-0.5-1.7-1.7-1.7-3.7c0-1.6,0.4-3.2,1.1-4.8c0.7-1.6,1.8-3.1,3.1-4.5c1.3-1.4,2.8-2.6,4.4-3.6c1.7-1,3.2-1.5,4.4-1.5
				c1.3-0.1,2.2,0.3,2.9,1.1c0.7,0.8,1.1,1.9,1.1,3.5L108.5,756.5z M124.2,766.4c-1.7,1-3.2,1.4-4.5,1.3c-1.2-0.1-2.2-0.8-2.9-1.9
				c-0.7-1.1-1-2.7-1-4.7c0-2,0.3-4,1-5.9c0.7-1.9,1.6-3.7,2.9-5.2c1.2-1.6,2.7-2.9,4.4-3.9c1.5-0.9,2.8-1.3,3.9-1.3
				c1.1,0,2,0.3,2.6,1.1c0.7,0.8,1,1.9,1.1,3.3l-4.5,2.6c-0.1-0.9-0.5-1.5-1-1.8c-0.5-0.3-1.2-0.2-2.1,0.3c-0.7,0.4-1.4,1-1.9,1.8
				c-0.5,0.8-1,1.7-1.3,2.7c-0.3,1-0.5,2.2-0.5,3.4c0,1.3,0.1,2.2,0.4,2.9c0.3,0.7,0.7,1.1,1.3,1.3c0.5,0.1,1.2,0,1.9-0.4
				c0.5-0.3,1-0.7,1.4-1.2c0.4-0.5,0.8-1.1,1.1-1.7c0.3-0.7,0.5-1.4,0.6-2.1l4.5-2.6c-0.1,1.5-0.4,3.1-1.1,4.6
				c-0.6,1.5-1.5,2.9-2.6,4.2C127,764.5,125.7,765.5,124.2,766.4z M134.8,759.9l0-19.6l4.6-2.6l0,3.4l0.2-0.1
				c0.3-1.4,0.8-2.6,1.6-3.7c0.7-1.1,1.6-1.9,2.5-2.4c0.2-0.1,0.5-0.3,0.8-0.4c0.3-0.1,0.5-0.2,0.7-0.3l0,4.8
				c-0.2,0.1-0.5,0.2-0.9,0.3c-0.4,0.2-0.7,0.3-1.1,0.5c-0.7,0.4-1.3,0.9-1.9,1.6c-0.5,0.7-1,1.4-1.3,2.2c-0.3,0.8-0.5,1.6-0.5,2.4
				l0,11.1L134.8,759.9z M158.5,737.9l0-11.3l4.7-2.7l0,19.6l-4.5,2.6l0-3.6l-0.2,0.1c-0.4,1.4-1,2.7-1.9,3.9
				c-0.9,1.2-2,2.2-3.2,2.9c-1.1,0.7-2.1,0.9-3,0.8c-0.9-0.1-1.5-0.6-2-1.4c-0.5-0.8-0.7-2-0.7-3.5l0-12.5l4.7-2.7l0,11.5
				c0,1.2,0.3,1.9,0.8,2.3c0.5,0.4,1.2,0.3,2.1-0.2c0.6-0.3,1.1-0.8,1.6-1.4c0.5-0.6,0.9-1.3,1.2-2
				C158.3,739.6,158.5,738.7,158.5,737.9z M167,748.7l0-27l4.6-2.7l0,3.3l0.2-0.1c0.2-0.6,0.5-1.4,0.9-2.1c0.4-0.8,0.9-1.5,1.5-2.3
				c0.6-0.7,1.4-1.4,2.4-1.9c1.2-0.7,2.4-1,3.4-0.9c1,0.1,1.9,0.8,2.5,1.9c0.6,1.1,0.9,2.8,0.9,5.1c0,2.2-0.3,4.2-0.9,6.1
				c-0.6,1.9-1.4,3.5-2.5,4.8c-1,1.4-2.2,2.4-3.5,3.2c-0.9,0.5-1.7,0.8-2.3,0.8c-0.6,0-1.2-0.1-1.6-0.4c-0.4-0.3-0.7-0.7-0.9-1.1
				l-0.1,0.1l0,10.5L167,748.7z M171.6,728.8c0,1.2,0.1,2.1,0.4,2.8c0.3,0.7,0.7,1.2,1.2,1.3c0.5,0.2,1.2,0,1.9-0.4
				c0.8-0.4,1.4-1.1,1.9-1.9c0.5-0.8,0.9-1.7,1.2-2.7c0.3-1,0.4-2.1,0.4-3.3c0-1.1-0.1-2.1-0.4-2.8c-0.3-0.7-0.7-1.1-1.2-1.3
				c-0.5-0.2-1.2,0-2,0.4c-0.8,0.4-1.4,1.1-1.9,1.8c-0.5,0.8-0.9,1.7-1.2,2.7C171.7,726.6,171.6,727.7,171.6,728.8z M195.7,705.1
				l0,4.1l-10.2,5.9l0-4.1L195.7,705.1z M187.8,704.9l4.7-2.7l0,18.3c0,0.5,0.1,0.9,0.2,1.1c0.1,0.2,0.3,0.3,0.6,0.3
				c0.2,0,0.5-0.1,0.8-0.3c0.2-0.1,0.4-0.3,0.7-0.4c0.2-0.2,0.4-0.3,0.5-0.4l0.7,3.6c-0.2,0.2-0.6,0.5-1,0.9
				c-0.4,0.4-0.9,0.7-1.6,1.1c-1.1,0.7-2.1,1.1-3,1.2c-0.8,0.1-1.5-0.2-2-0.7c-0.5-0.6-0.7-1.5-0.7-2.8L187.8,704.9z M201.6,721.7
				c-0.7,0.4-1.4,0.5-1.9,0.2c-0.5-0.3-0.8-0.9-0.8-1.7c0-0.8,0.3-1.7,0.8-2.6c0.5-0.9,1.2-1.6,1.9-2c0.7-0.4,1.3-0.5,1.9-0.2
				c0.5,0.3,0.8,0.9,0.8,1.7c0,0.6-0.1,1.2-0.4,1.8c-0.2,0.6-0.6,1.2-1,1.7C202.5,721,202,721.4,201.6,721.7z"/>
		</g>
	</g>
	<g>
		
			<rect x="67.3" y="348.1" transform="matrix(6.347528e-03 -1 1 6.347528e-03 53.917 754.4647)" class="st1" width="678.5" height="4"/>
	</g>
	<g>
		<path class="st1" d="M24.9,433l0.5-29.1l5.4-3l-0.2,12l10.9-6l0.2-12l5.4-3L46.6,421l-5.4,3l0.2-12L30.5,418l-0.2,12L24.9,433z
			 M56.9,386.5l-0.5,29.1l-5.4,3l0.5-29.1L56.9,386.5z M74.9,376.6l-0.5,29.1l-5.4,3l0.5-29.1L74.9,376.6z M83.6,371.7l-0.1,3.1
			c0,0.9-0.2,1.8-0.5,2.9c-0.3,1.1-0.7,2.1-1.2,3.2c-0.5,1.1-1,2-1.6,2.9l-2.3-0.3c0.4-1,0.8-2,1.1-3.1c0.3-1.1,0.5-2.2,0.5-3.4
			l0.1-3.1L83.6,371.7z M85.9,399.3l0.4-21.8l5-2.8l-0.1,3.8l0.2-0.1c0.4-1.5,1.1-2.9,2-4.1c0.9-1.3,2.1-2.2,3.3-3
			c1.3-0.7,2.4-1,3.3-0.7c0.9,0.2,1.5,0.9,1.8,2l0.2-0.1c0.4-1.5,1.1-2.9,2.2-4.2c1-1.3,2.3-2.4,3.7-3.2c1.8-1,3.2-1.1,4.3-0.5
			c1.1,0.7,1.6,2.2,1.6,4.6l-0.3,14.7l-5.3,2.9l0.2-13.5c0-1.2-0.2-2-0.8-2.3c-0.6-0.3-1.3-0.2-2.1,0.3c-1,0.5-1.7,1.3-2.3,2.3
			c-0.6,1-0.8,2.1-0.9,3.2l-0.2,13.3l-5.1,2.8l0.2-13.6c0-1.1-0.2-1.8-0.8-2.1c-0.5-0.3-1.2-0.3-2.1,0.2c-0.6,0.3-1.1,0.8-1.6,1.4
			c-0.5,0.6-0.8,1.3-1.1,2c-0.3,0.7-0.4,1.5-0.4,2.3l-0.2,13.1L85.9,399.3z"/>
	</g>
	<g>
		<path class="st2" d="M25.2,521.8l1.5-46.5l9.9-5.3l-1.2,37.4l17.1-9.1l-0.3,9.1L25.2,521.8z M66,500.5c-2,1.1-3.7,1.6-5.2,1.7
			c-1.5,0.1-2.6-0.4-3.5-1.5c-0.8-1.1-1.2-2.7-1.1-5c0.1-1.9,0.4-3.7,1.1-5.4c0.6-1.7,1.5-3.2,2.6-4.6c1.1-1.4,2.3-2.7,3.7-3.8
			c1.4-1.2,2.9-2.3,4.4-3.2c1.8-1.1,3.2-2.1,4.2-2.8c1.1-0.8,1.9-1.5,2.4-2.1c0.5-0.7,0.8-1.3,0.8-2.1l0-0.1c0-1.2-0.3-1.9-1-2.1
			c-0.7-0.3-1.6-0.1-2.8,0.6c-1.3,0.7-2.3,1.6-3.2,2.6c-0.8,1.1-1.3,2.2-1.6,3.4l-9,4.5c0.3-2.3,1.1-4.5,2.2-6.8
			c1.2-2.3,2.8-4.4,4.7-6.4c2-2,4.4-3.8,7.1-5.2c2-1.1,3.8-1.8,5.4-2.1c1.6-0.4,3.1-0.4,4.3,0c1.2,0.3,2.1,1,2.7,2.1
			c0.6,1.1,0.9,2.5,0.9,4.4l-0.7,23.7l-9.2,4.9l0.2-4.9l-0.2,0.1c-0.6,1.5-1.3,2.9-2.2,4.1c-0.9,1.3-1.9,2.4-3,3.4
			C68.7,498.8,67.4,499.7,66,500.5z M69.2,491.6c1.1-0.6,2-1.3,2.9-2.3c0.9-0.9,1.6-2,2.1-3.1c0.5-1.1,0.8-2.3,0.9-3.4l0.1-3.3
			c-0.3,0.3-0.6,0.7-1,1c-0.4,0.3-0.8,0.7-1.3,1.1c-0.5,0.4-1,0.7-1.5,1.1c-0.5,0.4-1,0.7-1.4,1c-0.9,0.7-1.7,1.3-2.4,2
			c-0.7,0.7-1.2,1.4-1.5,2.2c-0.4,0.7-0.5,1.5-0.6,2.2c0,1.2,0.3,1.8,1,2.1C67.2,492.4,68.1,492.2,69.2,491.6z M120.2,436.5
			l-11.7,40.6l-11.2,6l-9.4-29.2l10.3-5.5l4.9,21l0.3-0.2l6.4-27.1L120.2,436.5z M130.7,465.8c-2,1.1-3.7,1.6-5.2,1.7
			c-1.5,0.1-2.6-0.4-3.5-1.5c-0.8-1.1-1.2-2.7-1.1-5c0.1-1.9,0.4-3.7,1.1-5.4c0.6-1.7,1.5-3.2,2.6-4.6c1.1-1.4,2.3-2.7,3.7-3.8
			c1.4-1.2,2.9-2.3,4.4-3.2c1.8-1.1,3.2-2.1,4.2-2.8c1.1-0.8,1.9-1.5,2.4-2.1c0.5-0.7,0.8-1.3,0.8-2.1l0-0.1c0-1.2-0.3-1.9-1-2.1
			c-0.7-0.3-1.6-0.1-2.8,0.6c-1.3,0.7-2.3,1.6-3.2,2.6c-0.8,1.1-1.3,2.2-1.6,3.4l-9,4.5c0.3-2.3,1.1-4.5,2.2-6.8
			c1.2-2.3,2.8-4.4,4.7-6.4c2-2,4.4-3.8,7.1-5.2c2-1.1,3.8-1.8,5.4-2.1c1.6-0.4,3.1-0.4,4.3,0c1.2,0.3,2.1,1,2.7,2.1
			c0.6,1.1,0.9,2.5,0.9,4.4l-0.7,23.7l-9.2,4.9l0.2-4.9l-0.2,0.1c-0.6,1.5-1.3,2.9-2.2,4.1c-0.9,1.3-1.9,2.4-3,3.4
			C133.4,464.1,132.1,465,130.7,465.8z M134,456.9c1.1-0.6,2-1.3,2.9-2.3c0.9-0.9,1.6-2,2.1-3.1c0.5-1.1,0.8-2.3,0.9-3.4l0.1-3.3
			c-0.3,0.3-0.6,0.7-1,1c-0.4,0.3-0.8,0.7-1.3,1.1c-0.5,0.4-1,0.7-1.5,1.1c-0.5,0.4-1,0.7-1.4,1c-0.9,0.7-1.7,1.3-2.4,2
			c-0.7,0.7-1.2,1.4-1.5,2.2c-0.4,0.7-0.5,1.5-0.6,2.2c0,1.1,0.3,1.8,1,2.1C131.9,457.7,132.8,457.5,134,456.9z M165.5,427
			l-0.6,19.9l-9.8,5.3l1.1-34.9l9.3-5l-0.2,6.4l0.3-0.2c0.7-2.5,2-4.8,3.6-6.9c1.7-2.1,3.7-3.8,5.9-5c2.2-1.2,4-1.6,5.6-1.4
			c1.6,0.2,2.8,1.1,3.6,2.6c0.8,1.5,1.2,3.5,1.1,6.2l-0.7,22.2l-9.8,5.3l0.6-20.1c0.1-1.9-0.3-3.2-1.2-3.8c-0.8-0.6-2-0.5-3.6,0.3
			c-1,0.6-1.9,1.3-2.7,2.2c-0.8,0.9-1.4,2-1.9,3.1C165.8,424.4,165.6,425.7,165.5,427z M205.2,425.9c-3.2,1.7-6,2.5-8.3,2.2
			c-2.3-0.3-4-1.4-5.1-3.5c-1.2-2-1.7-4.8-1.6-8.4c0.1-3.6,0.8-7,2.2-10.4c1.3-3.4,3.2-6.5,5.5-9.2c2.4-2.8,5.2-5,8.4-6.7
			c2.8-1.5,5.3-2.3,7.4-2.2c2.1,0,3.7,0.8,4.8,2.3c1.1,1.5,1.7,3.6,1.7,6.5l-9.2,4.9c-0.1-1.7-0.6-2.8-1.5-3.3
			c-0.8-0.5-2-0.4-3.4,0.3c-1.1,0.6-2.1,1.5-3,2.7c-0.9,1.2-1.6,2.6-2.1,4.3c-0.5,1.6-0.8,3.5-0.9,5.6c-0.1,2.1,0.1,3.7,0.5,4.8
			c0.4,1.2,1.1,1.9,1.9,2.1c0.8,0.3,1.8,0.1,3-0.5c0.9-0.5,1.7-1.1,2.4-1.9c0.7-0.8,1.3-1.8,1.8-2.9c0.5-1.1,0.8-2.3,1-3.6l9.2-4.9
			c-0.2,2.9-0.9,5.8-2.1,8.6c-1.2,2.8-2.9,5.3-5.1,7.7C210.6,422.5,208.1,424.4,205.2,425.9z M238.9,407.9c-3.2,1.7-6,2.5-8.3,2.3
			c-2.3-0.2-4-1.3-5.2-3.3c-1.2-2-1.7-4.9-1.6-8.6c0.1-3.6,0.8-7.1,2.2-10.5c1.3-3.4,3.2-6.4,5.5-9.2c2.3-2.7,5-4.9,8.1-6.6
			c2.2-1.2,4.2-1.9,6-2.1c1.8-0.2,3.3,0.1,4.6,0.9c1.3,0.8,2.2,2.1,2.9,4c0.7,1.8,1,4.2,0.9,7l-0.1,2.8L227.2,399l0.2-6.5l17.6-9.5
			c0-1.2-0.2-2.1-0.6-2.8c-0.5-0.7-1.1-1-1.9-1.1c-0.8-0.1-1.8,0.2-2.8,0.7c-1.1,0.6-2.1,1.4-3,2.4c-0.9,1-1.6,2.1-2.1,3.4
			c-0.5,1.2-0.8,2.4-0.9,3.6l-0.2,6.6c0,1.4,0.2,2.5,0.6,3.4c0.5,0.8,1.1,1.2,2,1.3c0.9,0.1,2-0.2,3.2-0.9c0.9-0.5,1.7-1,2.4-1.7
			c0.7-0.7,1.3-1.4,1.9-2.2c0.5-0.8,0.9-1.7,1.2-2.6l9-4.5c-0.4,2.5-1.3,4.9-2.7,7.3c-1.3,2.4-3,4.5-5.1,6.6
			C243.9,404.7,241.5,406.4,238.9,407.9z M270.6,390.2l1.5-46.5l9.9-5.3l-1.2,37.4l17.1-9.2l-0.3,9.1L270.6,390.2z M317.1,365.9
			c-3.2,1.7-6,2.5-8.3,2.3c-2.3-0.2-4-1.3-5.2-3.3c-1.2-2-1.7-4.9-1.6-8.6c0.1-3.6,0.8-7.1,2.2-10.5c1.3-3.4,3.2-6.4,5.5-9.2
			c2.3-2.7,5-4.9,8.1-6.6c2.2-1.2,4.2-1.9,6-2.1c1.8-0.2,3.3,0.1,4.6,0.9c1.3,0.8,2.2,2.1,2.9,4c0.7,1.8,1,4.2,0.9,7l-0.1,2.8
			L305.4,357l0.2-6.5l17.6-9.5c0-1.2-0.2-2.1-0.6-2.8c-0.5-0.7-1.1-1-1.9-1.1c-0.8-0.1-1.8,0.2-2.8,0.7c-1.1,0.6-2.1,1.4-3,2.4
			c-0.9,1-1.6,2.1-2.1,3.4c-0.5,1.2-0.8,2.4-0.9,3.6l-0.2,6.6c0,1.4,0.2,2.5,0.6,3.4c0.5,0.8,1.1,1.2,2,1.3c0.9,0.1,2-0.2,3.2-0.9
			c0.9-0.5,1.7-1,2.4-1.7c0.7-0.7,1.3-1.4,1.9-2.2c0.5-0.8,0.9-1.7,1.2-2.6l9-4.5c-0.4,2.5-1.3,4.9-2.7,7.3c-1.3,2.4-3,4.5-5.1,6.6
			C322.1,362.8,319.8,364.5,317.1,365.9z M351.1,347.7c-3.2,1.7-6,2.5-8.3,2.3c-2.3-0.2-4-1.3-5.2-3.3c-1.2-2-1.7-4.9-1.6-8.6
			c0.1-3.6,0.8-7.1,2.2-10.5c1.3-3.4,3.2-6.4,5.5-9.2c2.3-2.7,5-4.9,8.1-6.6c2.2-1.2,4.2-1.9,6-2.1c1.8-0.2,3.3,0.1,4.6,0.9
			c1.3,0.8,2.2,2.1,2.9,4c0.7,1.8,1,4.2,0.9,7l-0.1,2.8l-26.7,14.3l0.2-6.5l17.6-9.5c0-1.2-0.2-2.1-0.6-2.8c-0.5-0.7-1.1-1-1.9-1.1
			c-0.8-0.1-1.8,0.2-2.8,0.7c-1.1,0.6-2.1,1.4-3,2.4c-0.9,1-1.6,2.1-2.1,3.4c-0.5,1.2-0.8,2.4-0.9,3.6l-0.2,6.6
			c0,1.4,0.2,2.5,0.6,3.4c0.5,0.8,1.1,1.2,2,1.3c0.9,0.1,2-0.2,3.2-0.9c0.9-0.5,1.7-1,2.4-1.7c0.7-0.7,1.3-1.4,1.9-2.2
			c0.5-0.8,0.9-1.7,1.2-2.6l9-4.5c-0.4,2.5-1.3,4.9-2.7,7.3c-1.3,2.4-3,4.5-5.1,6.6C356.1,344.6,353.8,346.3,351.1,347.7z"/>
	</g>
	<g>
		<path class="st3" d="M1830,4.1L400.2,3L8,252.6c511,0.6,980,7.8,1491,8.4L1830,4.1z"/>
	</g>
	<g class="st4">
		<path class="st5" d="M1830,4.1L400.2,3L8,252.6c511,0.6,980,7.8,1491,8.4L1830,4.1z"/>
	</g>
	<g>
		<path class="st1" d="M1499.7,263l-0.7,0c-255.5-0.3-504.6-2.3-745.5-4.2c-240.9-1.9-490-3.9-745.5-4.2l-6.9,0L399.6,1l0.6,0
			l1435.6,1.1L1499.7,263z M14.9,250.6c253.1,0.3,499.9,2.3,738.6,4.2c240.7,1.9,489.6,3.9,744.8,4.2L1824.2,6.1L400.8,5L14.9,250.6
			z"/>
	</g>
	<g>
		<g>
			<path class="st6" d="M1826,689.3h-330H404.4L8,926.1c509.9,0.6,977.9,7.4,1487.7,8l165.1-122.4L1826,689.3z"/>
			<path class="st1" d="M1496.4,936.1l-0.7,0c-255-0.3-503.5-2.2-743.9-4c-240.4-1.8-488.9-3.7-743.9-4l-7.2,0l403.1-240.7h1428.2
				L1496.4,936.1z M15.2,924.1c252.4,0.3,498.5,2.2,736.6,4c240.2,1.8,488.5,3.7,743.2,4l324.9-240.7H405L15.2,924.1z"/>
		</g>
	</g>
	<g>
		
			<rect x="2.6" y="254" transform="matrix(1 -1.842678e-03 1.842678e-03 1 -1.0877 9.514599e-03)" class="st1" width="4" height="672.5"/>
	</g>
	<g>
		<path class="st7" d="M1496.9,933.2l-0.9-672.7L1830,4.1v682.2L1496.9,933.2z"/>
		<path class="st1" d="M1494.9,937.2l-0.9-677.6L1832,0v687.3L1494.9,937.2z M1498,261.6l0.8,667.7l329.2-244V8.1L1498,261.6z"/>
	</g>
	<g>
		<rect x="1098" y="299" class="st8" width="341" height="342"/>
	</g>
	<g>
		<path class="st1" d="M534.3,621c-3.3,0-6.3-0.6-8.9-1.7c-2.6-1.2-4.7-2.9-6.2-5.2c-1.5-2.3-2.2-5.2-2.2-8.7c0-2.9,0.5-5.4,1.6-7.3
			c1.1-2,2.5-3.6,4.4-4.8c1.8-1.2,3.9-2.1,6.3-2.7c2.4-0.6,4.8-1,7.4-1.3c3-0.3,5.5-0.6,7.4-0.9c1.9-0.3,3.2-0.7,4.1-1.3
			s1.3-1.4,1.3-2.5v-0.2c0-2.2-0.7-3.8-2-5c-1.3-1.2-3.2-1.8-5.7-1.8c-2.6,0-4.7,0.6-6.2,1.7c-1.5,1.1-2.6,2.6-3.1,4.3l-13.4-1.1
			c0.7-3.2,2-5.9,4-8.2c2-2.3,4.6-4.1,7.7-5.4c3.2-1.3,6.9-1.9,11-1.9c2.9,0,5.7,0.3,8.4,1c2.7,0.7,5.1,1.7,7.1,3.2
			c2.1,1.4,3.7,3.3,4.9,5.5c1.2,2.2,1.8,4.9,1.8,8V620h-13.8v-7.3h-0.4c-0.8,1.6-2,3.1-3.4,4.3c-1.4,1.2-3.1,2.2-5.1,2.9
			C539.2,620.6,536.9,621,534.3,621z M538.5,611c2.1,0,4-0.4,5.7-1.3c1.6-0.9,2.9-2,3.9-3.5c0.9-1.5,1.4-3.1,1.4-4.9v-5.6
			c-0.5,0.3-1.1,0.6-1.9,0.8c-0.8,0.2-1.6,0.4-2.6,0.6c-1,0.2-2,0.4-2.9,0.5c-1,0.1-1.9,0.3-2.7,0.4c-1.7,0.2-3.2,0.6-4.5,1.2
			c-1.3,0.5-2.3,1.3-3,2.2c-0.7,0.9-1.1,2-1.1,3.4c0,2,0.7,3.5,2.1,4.5C534.4,610.5,536.3,611,538.5,611z M622,567.6L603.7,620
			h-16.4l-18.3-52.4h15.3l10.9,37.5h0.5l10.8-37.5H622z M643,621c-3.3,0-6.3-0.6-8.9-1.7c-2.6-1.2-4.7-2.9-6.2-5.2
			c-1.5-2.3-2.2-5.2-2.2-8.7c0-2.9,0.5-5.4,1.6-7.3c1.1-2,2.5-3.6,4.4-4.8c1.8-1.2,3.9-2.1,6.3-2.7c2.4-0.6,4.8-1,7.4-1.3
			c3-0.3,5.5-0.6,7.4-0.9c1.9-0.3,3.2-0.7,4.1-1.3c0.8-0.6,1.3-1.4,1.3-2.5v-0.2c0-2.2-0.7-3.8-2-5c-1.3-1.2-3.2-1.8-5.7-1.8
			c-2.6,0-4.7,0.6-6.2,1.7c-1.5,1.1-2.6,2.6-3.1,4.3l-13.4-1.1c0.7-3.2,2-5.9,4-8.2c2-2.3,4.6-4.1,7.7-5.4c3.2-1.3,6.9-1.9,11-1.9
			c2.9,0,5.7,0.3,8.4,1c2.7,0.7,5.1,1.7,7.1,3.2c2.1,1.4,3.7,3.3,4.9,5.5c1.2,2.2,1.8,4.9,1.8,8V620h-13.8v-7.3h-0.4
			c-0.8,1.6-2,3.1-3.4,4.3c-1.4,1.2-3.1,2.2-5.1,2.9C647.9,620.6,645.6,621,643,621z M647.2,611c2.1,0,4-0.4,5.7-1.3
			c1.6-0.9,2.9-2,3.9-3.5c0.9-1.5,1.4-3.1,1.4-4.9v-5.6c-0.5,0.3-1.1,0.6-1.9,0.8c-0.8,0.2-1.6,0.4-2.6,0.6c-1,0.2-2,0.4-2.9,0.5
			c-1,0.1-1.9,0.3-2.7,0.4c-1.7,0.2-3.2,0.6-4.5,1.2c-1.3,0.5-2.3,1.3-3,2.2c-0.7,0.9-1.1,2-1.1,3.4c0,2,0.7,3.5,2.1,4.5
			C643.1,610.5,644.9,611,647.2,611z M698.3,589.7V620h-14.5v-52.4h13.8v9.2h0.6c1.2-3,3.1-5.5,5.8-7.2c2.7-1.8,6-2.7,9.9-2.7
			c3.6,0,6.8,0.8,9.5,2.4c2.7,1.6,4.8,3.9,6.3,6.8c1.5,2.9,2.2,6.4,2.2,10.5V620h-14.5v-30.8c0-3.2-0.8-5.7-2.5-7.5
			c-1.7-1.8-3.9-2.7-6.9-2.7c-2,0-3.7,0.4-5.2,1.3c-1.5,0.8-2.6,2.1-3.5,3.7C698.7,585.6,698.3,587.5,698.3,589.7z M767.1,621
			c-5.4,0-10-1.1-13.8-3.4c-3.8-2.3-6.8-5.5-8.9-9.5c-2-4.1-3.1-8.8-3.1-14c0-5.4,1-10.1,3.1-14.1c2.1-4.1,5.1-7.2,8.9-9.5
			c3.8-2.3,8.4-3.4,13.7-3.4c4.6,0,8.6,0.8,12,2.5s6.1,4,8.1,7s3.1,6.5,3.3,10.6h-13.7c-0.4-2.6-1.4-4.7-3.1-6.3
			c-1.6-1.6-3.8-2.4-6.4-2.4c-2.2,0-4.2,0.6-5.9,1.8c-1.7,1.2-3,3-3.9,5.3s-1.4,5.1-1.4,8.4c0,3.3,0.5,6.2,1.4,8.5
			c0.9,2.3,2.2,4.1,3.9,5.4s3.6,1.8,5.9,1.8c1.7,0,3.1-0.3,4.5-1c1.3-0.7,2.4-1.7,3.3-3c0.9-1.3,1.5-2.9,1.7-4.7h13.7
			c-0.2,4-1.3,7.5-3.3,10.6c-1.9,3-4.6,5.4-8,7.1C775.8,620.2,771.8,621,767.1,621z M823.7,621c-5.4,0-10-1.1-13.9-3.3
			c-3.9-2.2-6.8-5.3-8.9-9.3c-2.1-4-3.1-8.8-3.1-14.4c0-5.4,1-10.1,3.1-14.2s5-7.2,8.8-9.5c3.8-2.3,8.3-3.4,13.4-3.4
			c3.5,0,6.7,0.6,9.6,1.7c3,1.1,5.6,2.7,7.8,4.9c2.2,2.2,4,5,5.2,8.3c1.2,3.3,1.9,7.2,1.9,11.7v4h-44.2v-9H834
			c0-2.1-0.5-3.9-1.4-5.6c-0.9-1.6-2.2-2.9-3.8-3.8c-1.6-0.9-3.4-1.4-5.6-1.4c-2.2,0-4.2,0.5-5.9,1.5c-1.7,1-3,2.4-4,4.1
			c-1,1.7-1.4,3.6-1.5,5.6v8.6c0,2.6,0.5,4.8,1.4,6.7c1,1.9,2.4,3.3,4.1,4.4c1.8,1,3.9,1.5,6.3,1.5c1.6,0,3.1-0.2,4.4-0.7
			c1.3-0.5,2.5-1.1,3.4-2c1-0.9,1.7-2,2.2-3.3l13.4,0.9c-0.7,3.2-2.1,6-4.2,8.5c-2.1,2.4-4.8,4.2-8.1,5.6
			C831.8,620.4,828,621,823.7,621z"/>
	</g>
	<g>
		<path class="st2" d="M463.3,623v-69.8h14.8v57.6H508V623H463.3z"/>
	</g>
	<g>
		<path class="st2" d="M881.3,623v-69.8h14.8v57.6H926V623H881.3z"/>
	</g>
	<g>
		<path class="st1" d="M957.8,626c-5.4,0-10-1.1-13.9-3.3c-3.9-2.2-6.8-5.3-8.9-9.3c-2.1-4-3.1-8.8-3.1-14.4c0-5.4,1-10.1,3.1-14.2
			s5-7.2,8.8-9.5c3.8-2.3,8.3-3.4,13.4-3.4c3.5,0,6.7,0.6,9.6,1.7c3,1.1,5.6,2.7,7.8,4.9c2.2,2.2,4,5,5.2,8.3
			c1.2,3.3,1.9,7.2,1.9,11.7v4h-44.2v-9h30.5c0-2.1-0.5-3.9-1.4-5.6c-0.9-1.6-2.2-2.9-3.8-3.8c-1.6-0.9-3.4-1.4-5.6-1.4
			c-2.2,0-4.2,0.5-5.9,1.5c-1.7,1-3,2.4-4,4.1c-1,1.7-1.4,3.6-1.5,5.6v8.6c0,2.6,0.5,4.8,1.4,6.7c1,1.9,2.4,3.3,4.1,4.4
			c1.8,1,3.9,1.5,6.3,1.5c1.6,0,3.1-0.2,4.4-0.7c1.3-0.5,2.5-1.1,3.4-2c1-0.9,1.7-2,2.2-3.3l13.4,0.9c-0.7,3.2-2.1,6-4.2,8.5
			c-2.1,2.4-4.8,4.2-8.1,5.6C965.9,625.4,962.1,626,957.8,626z M1015.2,626c-5.4,0-10-1.1-13.9-3.3c-3.9-2.2-6.8-5.3-8.9-9.3
			c-2.1-4-3.1-8.8-3.1-14.4c0-5.4,1-10.1,3.1-14.2s5-7.2,8.8-9.5c3.8-2.3,8.3-3.4,13.4-3.4c3.5,0,6.7,0.6,9.6,1.7
			c3,1.1,5.6,2.7,7.8,4.9c2.2,2.2,4,5,5.2,8.3c1.2,3.3,1.9,7.2,1.9,11.7v4H995v-9h30.5c0-2.1-0.5-3.9-1.4-5.6
			c-0.9-1.6-2.2-2.9-3.8-3.8c-1.6-0.9-3.5-1.4-5.6-1.4c-2.2,0-4.2,0.5-5.9,1.5c-1.7,1-3,2.4-4,4.1c-1,1.7-1.4,3.6-1.5,5.6v8.6
			c0,2.6,0.5,4.8,1.4,6.7c1,1.9,2.4,3.3,4.1,4.4c1.8,1,3.9,1.5,6.3,1.5c1.6,0,3.1-0.2,4.4-0.7c1.3-0.5,2.5-1.1,3.4-2
			c1-0.9,1.7-2,2.2-3.3l13.4,0.9c-0.7,3.2-2.1,6-4.2,8.5c-2.1,2.4-4.8,4.2-8.1,5.6C1023.3,625.4,1019.5,626,1015.2,626z"/>
	</g>
	
		<image style="overflow:visible;" width="1188" height="1188" xlink:href="../qr-code.png"  transform="matrix(0.2424 0 0 0.2424 1124.5099 348.2889)">
	</image>
</g>
</svg>
