<?xml version="1.0"?><svg id="Layer_1" style="enable-background:new 0 0 64 64;" version="1.1" viewBox="0 0 64 64" xml:space="preserve" xmlns="http://www.w3.org/2000/svg" xmlns:xlink="http://www.w3.org/1999/xlink"><style type="text/css">
	.st0{fill:#FACC2E;}
	.st1{fill-rule:evenodd;clip-rule:evenodd;fill:#EE802F;}
	.st2{fill:#314A52;}
</style><g id="RSS"><path class="st0" d="M57.4,39c3,7.3,4.6,15.1,4.6,23H50c0-26.5-21.5-48-48-48V2c7.9,0,15.7,1.6,23,4.6c7.3,3,13.9,7.4,19.5,13   C50,25.1,54.4,31.8,57.4,39z M30.3,33.7c-3.7-3.7-8.1-6.7-13-8.7S7.3,22,2,22v12c15.5,0,28,12.5,28,28h12c0-5.3-1-10.5-3-15.3   C36.9,41.8,34,37.4,30.3,33.7z M10,62c4.4,0,8-3.6,8-8c0-4.4-3.6-8-8-8c-4.4,0-8,3.6-8,8C2,58.4,5.6,62,10,62z"/><path class="st1" d="M0,20h2c5.5,0,11,1.1,16.1,3.2c5.1,2.1,9.7,5.2,13.6,9.1c3.9,3.9,7,8.5,9.1,13.6S44,56.5,44,62v2H28v-2   c0-14.4-11.6-26-26-26H0V20z M30.8,48c2.2,0,4-1.8,4-4c0-0.6-0.1-1.2-0.4-1.7c-1.6-2.6-3.4-5-5.6-7.1c-3.5-3.5-7.7-6.3-12.3-8.2   c-4-1.7-8.2-2.6-12.5-2.8v8c10.1,0.7,18.8,6.3,23.8,14.5C28.5,47.5,29.6,48,30.8,48z M10,44C4.5,44,0,48.5,0,54c0,5.5,4.5,10,10,10   c5.5,0,10-4.5,10-10C20,48.5,15.5,44,10,44z M4,54c0-3.3,2.7-6,6-6c3.3,0,6,2.7,6,6c0,3.3-2.7,4-6,4C6.7,58,4,57.3,4,54z M2,0H0v16   h2c25.4,0,46,20.6,46,46l15-1L53,30h-2.6c0.3,0.6,0.5,1.2,0.5,2c0,2.2-1.8,4-4,4c-1.2,0-2.2-0.5-3-1.3C35.3,21.6,20.7,12.7,4,12V4   c0.6,0,1.2,0.1,1.9,0.1l0.3-4C4.8,0,3.4,0,2,0z"/><path class="st2" d="M4,4c30.4,1,54.9,25.5,56,56H48v4h16v-2C64,28.4,37.3,1.1,4,0V4z"/></g></svg>